# Blender v3.1.2 OBJ File: 'adaptationgame.blend'
# www.blender.org
mtllib bucket.mtl
o bucket_Cylinder
v -0.000001 0.000000 -0.225284
v -0.000001 0.033366 -0.202756
v -0.000001 0.458894 -0.270039
v 0.112641 0.000000 -0.195102
v 0.101377 0.033366 -0.175591
v 0.135018 0.458894 -0.233860
v 0.195100 0.000000 -0.112642
v 0.175590 0.033366 -0.101378
v 0.233859 0.458894 -0.135019
v 0.225283 0.000000 0.000000
v 0.202754 0.033366 0.000000
v 0.270037 0.458894 0.000000
v 0.195100 0.000000 0.112642
v 0.175590 0.033366 0.101378
v 0.233859 0.458894 0.135019
v 0.112641 0.000000 0.195102
v 0.101377 0.033366 0.175591
v 0.135018 0.458894 0.233860
v -0.000001 0.000000 0.225284
v -0.000001 0.033366 0.202756
v -0.000001 0.458894 0.270039
v -0.112643 0.000000 0.195102
v -0.101379 0.033366 0.175591
v -0.135021 0.458894 0.233860
v -0.195103 0.000000 0.112642
v -0.175593 0.033366 0.101378
v -0.233862 0.458894 0.135019
v -0.225285 0.000000 -0.000000
v -0.202757 0.033366 -0.000000
v -0.270040 0.458894 -0.000000
v -0.195103 0.000000 -0.112642
v -0.175593 0.033366 -0.101378
v -0.233862 0.458894 -0.135019
v -0.112643 0.000000 -0.195102
v -0.101379 0.033366 -0.175591
v -0.135021 0.458894 -0.233860
v 0.120052 0.458894 -0.207938
v -0.120054 0.458894 -0.207938
v -0.240107 0.458894 -0.000000
v -0.120054 0.458894 0.207938
v 0.120052 0.458894 0.207938
v 0.240105 0.458894 0.000000
v -0.000001 0.458894 -0.240106
v -0.207939 0.458894 0.120053
v 0.207937 0.458894 0.120053
v -0.207939 0.458894 -0.120053
v 0.207937 0.458894 -0.120053
v -0.000001 0.458894 0.240106
v -0.253842 0.622528 0.041248
v -0.253842 0.675562 0.041248
v -0.253842 0.622528 -0.041248
v -0.253842 0.675562 -0.041248
v 0.253842 0.622528 0.041248
v 0.253842 0.675562 0.041248
v 0.253842 0.622528 -0.041248
v 0.253842 0.675562 -0.041248
v 0.243150 0.664719 0.046639
v 0.271899 0.664719 0.043951
v 0.243150 0.664719 -0.041263
v 0.271899 0.664719 -0.043951
v 0.243150 0.392327 0.046639
v 0.271899 0.392327 0.043951
v 0.243150 0.392327 -0.041263
v 0.271899 0.392327 -0.043951
v -0.271899 0.664719 0.046639
v -0.243149 0.664719 0.043951
v -0.271899 0.664719 -0.041263
v -0.243149 0.664719 -0.043951
v -0.271899 0.392327 0.046639
v -0.243149 0.392327 0.043951
v -0.271899 0.392327 -0.041263
v -0.243149 0.392327 -0.043951
vt 1.000000 0.500000
vt 1.000000 1.000000
vt 0.916667 1.000000
vt 0.916667 0.500000
vt 0.833333 1.000000
vt 0.833333 0.500000
vt 0.750000 1.000000
vt 0.750000 0.500000
vt 0.666667 1.000000
vt 0.666667 0.500000
vt 0.583333 1.000000
vt 0.583333 0.500000
vt 0.500000 1.000000
vt 0.500000 0.500000
vt 0.416667 1.000000
vt 0.416667 0.500000
vt 0.333333 1.000000
vt 0.333333 0.500000
vt 0.250000 1.000000
vt 0.250000 0.500000
vt 0.166667 1.000000
vt 0.166667 0.500000
vt 0.036603 0.250000
vt 0.010000 0.250000
vt 0.042154 0.130000
vt 0.130000 0.042154
vt 0.250000 0.010000
vt 0.370000 0.042154
vt 0.457846 0.130000
vt 0.490000 0.250000
vt 0.463397 0.250000
vt 0.434807 0.143301
vt 0.356699 0.065193
vt 0.250000 0.036603
vt 0.143301 0.065193
vt 0.065193 0.143301
vt 0.457846 0.370000
vt 0.370000 0.457846
vt 0.250000 0.490000
vt 0.130000 0.457846
vt 0.042154 0.370000
vt 0.065193 0.356699
vt 0.143301 0.434807
vt 0.250000 0.463397
vt 0.356699 0.434807
vt 0.434807 0.356699
vt 0.083333 1.000000
vt 0.083333 0.500000
vt 0.000000 1.000000
vt 0.000000 0.500000
vt 0.630000 0.457846
vt 0.750000 0.490000
vt 0.870000 0.457846
vt 0.957846 0.370000
vt 0.990000 0.250000
vt 0.957846 0.130000
vt 0.870000 0.042154
vt 0.750000 0.010000
vt 0.630000 0.042154
vt 0.542154 0.130000
vt 0.510000 0.250000
vt 0.542154 0.370000
vt 1.000000 0.963645
vt 1.000000 0.500000
vt 0.916667 0.500000
vt 0.916667 0.963645
vt 0.833333 0.500000
vt 0.833333 0.963645
vt 0.750000 0.500000
vt 0.750000 0.963645
vt 0.666667 0.500000
vt 0.666667 0.963645
vt 0.583333 0.500000
vt 0.583333 0.963645
vt 0.500000 0.500000
vt 0.500000 0.963645
vt 0.416667 0.500000
vt 0.416667 0.963645
vt 0.333333 0.500000
vt 0.333333 0.963645
vt 0.250000 0.500000
vt 0.250000 0.963645
vt 0.166667 0.500000
vt 0.166667 0.963645
vt 0.083333 0.500000
vt 0.083333 0.963645
vt 0.000000 0.500000
vt 0.000000 0.963645
vt 0.870000 0.042154
vt 0.957846 0.130000
vt 0.990000 0.250000
vt 0.957846 0.370000
vt 0.870000 0.457846
vt 0.750000 0.490000
vt 0.630000 0.457846
vt 0.542154 0.370000
vt 0.510000 0.250000
vt 0.542154 0.130000
vt 0.630000 0.042154
vt 0.750000 0.010000
vt 0.375000 0.000000
vt 0.625000 0.000000
vt 0.625000 0.250000
vt 0.375000 0.250000
vt 0.625000 0.500000
vt 0.375000 0.500000
vt 0.625000 0.750000
vt 0.375000 0.750000
vt 0.625000 1.000000
vt 0.375000 1.000000
vt 0.125000 0.500000
vt 0.125000 0.750000
vt 0.875000 0.500000
vt 0.875000 0.750000
vt 0.375000 0.000000
vt 0.625000 0.000000
vt 0.625000 0.250000
vt 0.375000 0.250000
vt 0.625000 0.500000
vt 0.375000 0.500000
vt 0.625000 0.750000
vt 0.375000 0.750000
vt 0.625000 1.000000
vt 0.375000 1.000000
vt 0.125000 0.500000
vt 0.125000 0.750000
vt 0.875000 0.500000
vt 0.875000 0.750000
vt 0.375000 0.000000
vt 0.625000 0.000000
vt 0.625000 0.250000
vt 0.375000 0.250000
vt 0.625000 0.500000
vt 0.375000 0.500000
vt 0.625000 0.750000
vt 0.375000 0.750000
vt 0.625000 1.000000
vt 0.375000 1.000000
vt 0.125000 0.500000
vt 0.125000 0.750000
vt 0.875000 0.500000
vt 0.875000 0.750000
vn 0.2577 -0.0938 -0.9617
vn 0.7040 -0.0938 -0.7040
vn 0.9617 -0.0938 -0.2577
vn 0.9617 -0.0938 0.2577
vn 0.7040 -0.0938 0.7040
vn 0.2577 -0.0938 0.9617
vn -0.2577 -0.0938 0.9617
vn -0.7040 -0.0938 0.7040
vn -0.9617 -0.0938 0.2577
vn -0.9617 -0.0938 -0.2577
vn 0.0000 1.0000 0.0000
vn -0.7040 -0.0938 -0.7040
vn -0.2577 -0.0938 -0.9617
vn 0.0000 -1.0000 0.0000
vn -0.2579 0.0845 0.9625
vn -0.7046 0.0845 0.7046
vn -0.9625 0.0845 0.2579
vn -0.9625 0.0845 -0.2579
vn -0.7046 0.0845 -0.7046
vn -0.2579 0.0845 -0.9625
vn 0.2579 0.0845 -0.9625
vn 0.7046 0.0845 -0.7046
vn 0.9625 0.0845 -0.2579
vn 0.9625 0.0845 0.2579
vn 0.7046 0.0845 0.7046
vn 0.2579 0.0845 0.9625
vn -1.0000 0.0000 0.0000
vn 0.0000 0.0000 -1.0000
vn 1.0000 0.0000 0.0000
vn 0.0000 0.0000 1.0000
vn -0.0931 0.0000 -0.9957
vn 0.0931 0.0000 0.9957
usemtl None
s off
f 1/1/1 3/2/1 6/3/1 4/4/1
f 4/4/2 6/3/2 9/5/2 7/6/2
f 7/6/3 9/5/3 12/7/3 10/8/3
f 10/8/4 12/7/4 15/9/4 13/10/4
f 13/10/5 15/9/5 18/11/5 16/12/5
f 16/12/6 18/11/6 21/13/6 19/14/6
f 19/14/7 21/13/7 24/15/7 22/16/7
f 22/16/8 24/15/8 27/17/8 25/18/8
f 25/18/9 27/17/9 30/19/9 28/20/9
f 28/20/10 30/19/10 33/21/10 31/22/10
f 39/23/11 30/24/11 27/25/11 24/26/11 21/27/11 18/28/11 15/29/11 12/30/11 42/31/11 45/32/11 41/33/11 48/34/11 40/35/11 44/36/11
f 42/31/11 12/30/11 9/37/11 6/38/11 3/39/11 36/40/11 33/41/11 30/24/11 39/23/11 46/42/11 38/43/11 43/44/11 37/45/11 47/46/11
f 31/22/12 33/21/12 36/47/12 34/48/12
f 34/48/13 36/47/13 3/49/13 1/50/13
f 34/51/14 1/52/14 4/53/14 7/54/14 10/55/14 13/56/14 16/57/14 19/58/14 22/59/14 25/60/14 28/61/14 31/62/14
f 43/63/15 2/64/15 5/65/15 37/66/15
f 37/66/16 5/65/16 8/67/16 47/68/16
f 47/68/17 8/67/17 11/69/17 42/70/17
f 11/69/18 14/71/18 45/72/18 42/70/18
f 14/71/19 17/73/19 41/74/19 45/72/19
f 41/74/20 17/73/20 20/75/20 48/76/20
f 20/75/21 23/77/21 40/78/21 48/76/21
f 23/77/22 26/79/22 44/80/22 40/78/22
f 44/80/23 26/79/23 29/81/23 39/82/23
f 39/82/24 29/81/24 32/83/24 46/84/24
f 46/84/25 32/83/25 35/85/25 38/86/25
f 38/86/26 35/85/26 2/87/26 43/88/26
f 17/89/11 14/90/11 11/91/11 8/92/11 5/93/11 2/94/11 35/95/11 32/96/11 29/97/11 26/98/11 23/99/11 20/100/11
f 49/101/27 50/102/27 52/103/27 51/104/27
f 51/104/28 52/103/28 56/105/28 55/106/28
f 55/106/29 56/105/29 54/107/29 53/108/29
f 53/108/30 54/107/30 50/109/30 49/110/30
f 51/111/14 55/106/14 53/108/14 49/112/14
f 56/105/11 52/113/11 50/114/11 54/107/11
f 57/115/11 58/116/11 60/117/11 59/118/11
f 59/118/31 60/117/31 64/119/31 63/120/31
f 63/120/14 64/119/14 62/121/14 61/122/14
f 61/122/32 62/121/32 58/123/32 57/124/32
f 59/125/27 63/120/27 61/122/27 57/126/27
f 64/119/29 60/127/29 58/128/29 62/121/29
f 65/129/11 66/130/11 68/131/11 67/132/11
f 67/132/31 68/131/31 72/133/31 71/134/31
f 71/134/14 72/133/14 70/135/14 69/136/14
f 69/136/32 70/135/32 66/137/32 65/138/32
f 67/139/27 71/134/27 69/136/27 65/140/27
f 72/133/29 68/141/29 66/142/29 70/135/29
