# Blender v3.1.2 OBJ File: 'adaptationgame.blend'
# www.blender.org
mtllib bullet.mtl
o Cylinder_Cylinder.002
v -0.000000 0.061084 -0.242382
v -0.000000 0.061084 0.003881
v 0.030542 0.052901 -0.242382
v 0.030542 0.052901 0.003881
v 0.052901 0.030542 -0.242382
v 0.052901 0.030542 0.003881
v 0.061084 0.000000 -0.242382
v 0.061084 0.000000 0.003881
v 0.052901 -0.030542 -0.242382
v 0.052901 -0.030542 0.003881
v 0.030542 -0.052901 -0.242382
v 0.030542 -0.052901 0.003881
v -0.000000 -0.061084 -0.242382
v -0.000000 -0.061084 0.003881
v -0.030542 -0.052901 -0.242382
v -0.030542 -0.052901 0.003881
v -0.052901 -0.030542 -0.242382
v -0.052901 -0.030542 0.003881
v -0.061084 0.000000 -0.242382
v -0.061084 0.000000 0.003881
v -0.052901 0.030542 -0.242382
v -0.052901 0.030542 0.003881
v -0.030542 0.052901 -0.242382
v -0.030542 0.052901 0.003881
v -0.000000 0.038543 -0.266008
v 0.019271 0.033379 -0.266008
v 0.033379 0.019272 -0.266008
v 0.038543 0.000000 -0.266008
v 0.033379 -0.019271 -0.266008
v 0.019271 -0.033379 -0.266008
v -0.000000 -0.038543 -0.266008
v -0.019272 -0.033379 -0.266008
v -0.033379 -0.019271 -0.266008
v -0.038543 0.000000 -0.266008
v -0.033379 0.019272 -0.266008
v -0.019272 0.033379 -0.266008
v -0.000000 0.062450 -0.281516
v 0.031225 0.054083 -0.281516
v 0.054083 0.031225 -0.281516
v 0.062450 0.000000 -0.281516
v 0.054083 -0.031225 -0.281516
v 0.031225 -0.054083 -0.281516
v -0.000000 -0.062450 -0.281516
v -0.031225 -0.054083 -0.281516
v -0.054083 -0.031225 -0.281516
v -0.062450 0.000000 -0.281516
v -0.054083 0.031225 -0.281516
v -0.031225 0.054083 -0.281516
v -0.000000 0.040996 -0.400634
v 0.020498 0.035504 -0.400634
v 0.035504 0.020498 -0.400634
v 0.040996 0.000000 -0.400634
v 0.035504 -0.020498 -0.400634
v 0.020498 -0.035504 -0.400634
v -0.000000 -0.040996 -0.400634
v -0.020498 -0.035504 -0.400634
v -0.035504 -0.020498 -0.400634
v -0.040996 0.000000 -0.400634
v -0.035504 0.020498 -0.400634
v -0.020498 0.035504 -0.400634
v -0.000000 0.000000 -0.437577
v -0.009712 -0.143303 -0.026185
v -0.009712 0.152163 -0.026185
v -0.009712 -0.113306 -0.065888
v -0.009712 0.122166 -0.065888
v 0.009712 -0.143303 -0.026185
v 0.009712 0.152163 -0.026185
v 0.009712 -0.113306 -0.065888
v 0.009712 0.122166 -0.065888
v -0.147733 0.014142 -0.026185
v 0.147733 0.014142 -0.026185
v -0.117736 0.014142 -0.065888
v 0.117736 0.014142 -0.065888
v -0.147733 -0.005282 -0.026185
v 0.147733 -0.005282 -0.026185
v -0.117736 -0.005282 -0.065888
v 0.117736 -0.005282 -0.065888
vt 1.000000 0.500000
vt 1.000000 1.000000
vt 0.916667 1.000000
vt 0.916667 0.500000
vt 0.833333 1.000000
vt 0.833333 0.500000
vt 0.750000 1.000000
vt 0.750000 0.500000
vt 0.666667 1.000000
vt 0.666667 0.500000
vt 0.583333 1.000000
vt 0.583333 0.500000
vt 0.500000 1.000000
vt 0.500000 0.500000
vt 0.416667 1.000000
vt 0.416667 0.500000
vt 0.333333 1.000000
vt 0.333333 0.500000
vt 0.250000 1.000000
vt 0.250000 0.500000
vt 0.166667 1.000000
vt 0.166667 0.500000
vt 0.370000 0.457846
vt 0.250000 0.490000
vt 0.130000 0.457846
vt 0.042154 0.370000
vt 0.010000 0.250000
vt 0.042154 0.130000
vt 0.130000 0.042154
vt 0.250000 0.010000
vt 0.370000 0.042154
vt 0.457846 0.130000
vt 0.490000 0.250000
vt 0.457846 0.370000
vt 0.083333 1.000000
vt 0.083333 0.500000
vt 0.000000 1.000000
vt 0.000000 0.500000
vt 0.833333 0.500000
vt 0.916667 0.500000
vt 0.750000 0.500000
vt 0.750000 0.500000
vt 0.833333 0.500000
vt 0.166667 0.500000
vt 0.250000 0.500000
vt 0.333333 0.500000
vt 0.416667 0.500000
vt 0.500000 0.500000
vt 0.583333 0.500000
vt 0.666667 0.500000
vt 0.000000 0.500000
vt 0.083333 0.500000
vt 1.000000 0.500000
vt 0.583333 0.500000
vt 0.500000 0.500000
vt 0.500000 0.500000
vt 0.583333 0.500000
vt 0.166667 0.500000
vt 0.250000 0.500000
vt 0.416667 0.500000
vt 0.666667 0.500000
vt 0.083333 0.500000
vt 0.916667 0.500000
vt 1.000000 0.500000
vt 0.333333 0.500000
vt 0.000000 0.500000
vt 0.583333 0.500000
vt 0.750000 0.500000
vt 0.833333 0.500000
vt 0.166667 0.500000
vt 0.250000 0.500000
vt 0.416667 0.500000
vt 0.666667 0.500000
vt 0.083333 0.500000
vt 0.916667 0.500000
vt 1.000000 0.500000
vt 0.333333 0.500000
vt 0.000000 0.500000
vt 0.833333 0.500000
vt 0.250000 0.500000
vt 0.500000 0.500000
vt 0.750000 0.500000
vt 0.166667 0.500000
vt 1.000000 0.500000
vt 0.416667 0.500000
vt 0.666667 0.500000
vt 0.083333 0.500000
vt 0.916667 0.500000
vt 0.333333 0.500000
vt 0.375000 0.000000
vt 0.625000 0.000000
vt 0.625000 0.250000
vt 0.375000 0.250000
vt 0.625000 0.500000
vt 0.375000 0.500000
vt 0.625000 0.750000
vt 0.375000 0.750000
vt 0.625000 1.000000
vt 0.375000 1.000000
vt 0.125000 0.500000
vt 0.125000 0.750000
vt 0.875000 0.500000
vt 0.875000 0.750000
vt 0.375000 0.000000
vt 0.625000 0.000000
vt 0.625000 0.250000
vt 0.375000 0.250000
vt 0.625000 0.500000
vt 0.375000 0.500000
vt 0.625000 0.750000
vt 0.375000 0.750000
vt 0.625000 1.000000
vt 0.375000 1.000000
vt 0.125000 0.500000
vt 0.125000 0.750000
vt 0.875000 0.500000
vt 0.875000 0.750000
vn 0.2588 0.9659 0.0000
vn 0.7071 0.7071 0.0000
vn 0.9659 0.2588 0.0000
vn 0.9659 -0.2588 -0.0000
vn 0.7071 -0.7071 0.0000
vn 0.2588 -0.9659 0.0000
vn -0.2588 -0.9659 0.0000
vn -0.7071 -0.7071 0.0000
vn -0.9659 -0.2588 -0.0000
vn -0.9659 0.2588 0.0000
vn 0.0000 0.0000 1.0000
vn -0.7071 0.7071 0.0000
vn -0.2588 0.9659 0.0000
vn 0.5200 0.5200 -0.6777
vn 0.5385 0.1443 0.8302
vn -0.7103 0.1903 -0.6777
vn -0.7103 -0.1903 -0.6777
vn -0.5200 -0.5200 -0.6777
vn -0.1903 -0.7103 -0.6777
vn 0.1903 -0.7103 -0.6777
vn 0.5200 -0.5200 -0.6777
vn 0.7103 -0.1903 -0.6777
vn -0.1903 0.7103 -0.6777
vn 0.1903 0.7103 -0.6777
vn 0.7103 0.1903 -0.6777
vn -0.5200 0.5200 -0.6777
vn 0.2550 -0.9516 -0.1714
vn -0.5385 0.1443 0.8302
vn -0.1443 -0.5385 0.8302
vn 0.5385 -0.1443 0.8302
vn -0.3942 0.3942 0.8302
vn 0.1443 0.5385 0.8302
vn -0.3942 -0.3942 0.8302
vn 0.3942 -0.3942 0.8302
vn -0.1443 0.5385 0.8302
vn 0.3942 0.3942 0.8302
vn -0.5385 -0.1443 0.8302
vn 0.1443 -0.5385 0.8302
vn 0.1766 -0.6589 -0.7312
vn 0.9516 0.2550 -0.1714
vn -0.9516 0.2550 -0.1714
vn -0.2550 -0.9516 -0.1714
vn 0.9516 -0.2550 -0.1714
vn -0.6966 0.6966 -0.1714
vn 0.2550 0.9516 -0.1714
vn -0.6966 -0.6966 -0.1714
vn 0.6966 -0.6966 -0.1714
vn -0.2550 0.9516 -0.1714
vn 0.6966 0.6966 -0.1714
vn -0.9516 -0.2550 -0.1714
vn 0.6589 0.1766 -0.7312
vn -0.6589 0.1766 -0.7312
vn -0.1766 -0.6589 -0.7312
vn 0.6589 -0.1766 -0.7312
vn -0.4824 0.4824 -0.7312
vn 0.1766 0.6589 -0.7312
vn -0.4824 -0.4824 -0.7312
vn 0.4824 -0.4824 -0.7312
vn -0.1766 0.6589 -0.7312
vn 0.4824 0.4824 -0.7312
vn -0.6589 -0.1766 -0.7312
vn -1.0000 0.0000 0.0000
vn 0.0000 0.0000 -1.0000
vn 1.0000 0.0000 0.0000
vn 0.0000 -0.7979 -0.6028
vn 0.0000 0.7979 -0.6028
vn 0.0000 1.0000 0.0000
vn -0.0000 -1.0000 -0.0000
vn -0.7979 0.0000 -0.6028
vn 0.7979 0.0000 -0.6028
usemtl None
s off
f 1/1/1 2/2/1 4/3/1 3/4/1
f 3/4/2 4/3/2 6/5/2 5/6/2
f 5/6/3 6/5/3 8/7/3 7/8/3
f 7/8/4 8/7/4 10/9/4 9/10/4
f 9/10/5 10/9/5 12/11/5 11/12/5
f 11/12/6 12/11/6 14/13/6 13/14/6
f 13/14/7 14/13/7 16/15/7 15/16/7
f 15/16/8 16/15/8 18/17/8 17/18/8
f 17/18/9 18/17/9 20/19/9 19/20/9
f 19/20/10 20/19/10 22/21/10 21/22/10
f 4/23/11 2/24/11 24/25/11 22/26/11 20/27/11 18/28/11 16/29/11 14/30/11 12/31/11 10/32/11 8/33/11 6/34/11
f 21/22/12 22/21/12 24/35/12 23/36/12
f 23/36/13 24/35/13 2/37/13 1/38/13
f 3/4/14 5/6/14 27/39/14 26/40/14
f 27/39/15 28/41/15 40/42/15 39/43/15
f 19/20/16 21/22/16 35/44/16 34/45/16
f 17/18/17 19/20/17 34/45/17 33/46/17
f 15/16/18 17/18/18 33/46/18 32/47/18
f 13/14/19 15/16/19 32/47/19 31/48/19
f 11/12/20 13/14/20 31/48/20 30/49/20
f 9/10/21 11/12/21 30/49/21 29/50/21
f 7/8/22 9/10/22 29/50/22 28/41/22
f 23/36/23 1/38/23 25/51/23 36/52/23
f 1/1/24 3/4/24 26/40/24 25/53/24
f 5/6/25 7/8/25 28/41/25 27/39/25
f 21/22/26 23/36/26 36/52/26 35/44/26
f 42/54/27 43/55/27 55/56/27 54/57/27
f 34/45/28 35/44/28 47/58/28 46/59/28
f 31/48/29 32/47/29 44/60/29 43/55/29
f 28/41/30 29/50/30 41/61/30 40/42/30
f 35/44/31 36/52/31 48/62/31 47/58/31
f 25/53/32 26/40/32 38/63/32 37/64/32
f 32/47/33 33/46/33 45/65/33 44/60/33
f 29/50/34 30/49/34 42/54/34 41/61/34
f 36/52/35 25/51/35 37/66/35 48/62/35
f 26/40/36 27/39/36 39/43/36 38/63/36
f 33/46/37 34/45/37 46/59/37 45/65/37
f 30/49/38 31/48/38 43/55/38 42/54/38
f 54/57/39 55/56/39 61/67/39
f 39/43/40 40/42/40 52/68/40 51/69/40
f 46/59/41 47/58/41 59/70/41 58/71/41
f 43/55/42 44/60/42 56/72/42 55/56/42
f 40/42/43 41/61/43 53/73/43 52/68/43
f 47/58/44 48/62/44 60/74/44 59/70/44
f 37/64/45 38/63/45 50/75/45 49/76/45
f 44/60/46 45/65/46 57/77/46 56/72/46
f 41/61/47 42/54/47 54/57/47 53/73/47
f 48/62/48 37/66/48 49/78/48 60/74/48
f 38/63/49 39/43/49 51/69/49 50/75/49
f 45/65/50 46/59/50 58/71/50 57/77/50
f 51/69/51 52/68/51 61/79/51
f 58/71/52 59/70/52 61/80/52
f 55/56/53 56/72/53 61/81/53
f 52/68/54 53/73/54 61/82/54
f 59/70/55 60/74/55 61/83/55
f 49/76/56 50/75/56 61/84/56
f 56/72/57 57/77/57 61/85/57
f 53/73/58 54/57/58 61/86/58
f 60/74/59 49/78/59 61/87/59
f 50/75/60 51/69/60 61/88/60
f 57/77/61 58/71/61 61/89/61
f 62/90/62 63/91/62 65/92/62 64/93/62
f 64/93/63 65/92/63 69/94/63 68/95/63
f 68/95/64 69/94/64 67/96/64 66/97/64
f 66/97/11 67/96/11 63/98/11 62/99/11
f 64/100/65 68/95/65 66/97/65 62/101/65
f 69/94/66 65/102/66 63/103/66 67/96/66
f 70/104/67 71/105/67 73/106/67 72/107/67
f 72/107/63 73/106/63 77/108/63 76/109/63
f 76/109/68 77/108/68 75/110/68 74/111/68
f 74/111/11 75/110/11 71/112/11 70/113/11
f 72/114/69 76/109/69 74/111/69 70/115/69
f 77/108/70 73/116/70 71/117/70 75/110/70
