# Blender 3.6.5
# www.blender.org
mtllib cacis.mtl
o Cylinder
v 0.001217 -0.099146 -0.100842
v 0.001918 0.278570 -0.107355
v 0.042959 -0.101817 -0.087633
v 0.039798 0.276420 -0.112817
v 0.065649 -0.103513 -0.074673
v 0.076843 0.282584 -0.079262
v 0.088591 -0.105968 -0.039350
v 0.106081 0.277324 -0.044985
v 0.101519 -0.094780 0.001664
v 0.115643 0.276491 -0.001455
v 0.094637 -0.101184 0.047153
v 0.107581 0.276158 0.044546
v 0.070574 -0.100177 0.070586
v 0.082944 0.277315 0.082919
v 0.036792 -0.102033 0.088891
v 0.044920 0.271177 0.111655
v 0.000432 -0.103968 0.105813
v 0.003556 0.278450 0.117412
v -0.042556 -0.098117 0.090567
v -0.048333 0.278155 0.111377
v -0.067825 -0.098774 0.067298
v -0.088217 0.270391 0.079619
v -0.093255 -0.097062 0.037195
v -0.104620 0.274049 0.044960
v -0.093522 -0.098504 0.007263
v -0.116239 0.278450 0.000701
v -0.092129 -0.099419 -0.038213
v -0.112537 0.282018 -0.041597
v -0.071653 -0.097386 -0.070197
v -0.078089 0.276136 -0.079881
v -0.038309 -0.099846 -0.092149
v -0.047955 0.276348 -0.102375
v 0.036771 0.884823 -0.081384
v 0.005117 0.894411 -0.091625
v 0.060730 0.888677 -0.059863
v 0.081246 0.892934 -0.036243
v 0.087305 0.890214 0.000990
v 0.075090 0.889244 0.034084
v 0.060883 0.888779 0.064859
v 0.033182 0.891262 0.080138
v 0.005561 0.896187 0.080987
v -0.033112 0.891259 0.080262
v -0.058265 0.884289 0.065157
v -0.073822 0.892498 0.028636
v -0.080704 0.895354 0.003919
v -0.076960 0.895198 -0.032420
v -0.066252 0.890964 -0.064138
v -0.036818 0.896205 -0.077969
v 0.000061 1.007192 -0.000096
v 0.006342 0.492295 0.008826
v 0.003441 0.540936 0.137989
v 0.037129 0.488546 0.008211
v 0.048116 0.524962 0.139571
v 0.076620 0.460222 0.016502
v 0.082011 0.505543 0.132922
v 0.091868 0.435633 0.030267
v 0.107211 0.469821 0.152531
v 0.095373 0.393538 0.032290
v 0.115441 0.426962 0.162482
v 0.090887 0.351072 0.046768
v 0.106760 0.381173 0.179001
v 0.076571 0.331501 0.049209
v 0.087086 0.346727 0.183611
v 0.041470 0.297174 0.057316
v 0.050942 0.325704 0.193201
v -0.004222 0.295273 0.056336
v 0.000462 0.314475 0.190623
v -0.035124 0.302006 0.052741
v -0.042804 0.326536 0.186777
v -0.066201 0.324185 0.046592
v -0.077978 0.344730 0.179851
v -0.092241 0.348959 0.049132
v -0.103594 0.384710 0.172233
v -0.099100 0.393798 0.037528
v -0.118776 0.429812 0.163657
v -0.092945 0.429672 0.016889
v -0.111899 0.469778 0.150976
v -0.073711 0.468304 0.012269
v -0.085959 0.507309 0.144980
v -0.037421 0.483958 0.006309
v -0.042697 0.527448 0.142013
v 0.033691 0.565976 0.370514
v 0.008579 0.573934 0.364760
v 0.062311 0.547384 0.374638
v 0.076539 0.516930 0.385418
v 0.078482 0.489154 0.395060
v 0.080402 0.452213 0.396418
v 0.067840 0.429683 0.414162
v 0.034299 0.411689 0.413803
v 0.003658 0.405904 0.410092
v -0.034397 0.412005 0.412320
v -0.059166 0.427323 0.398198
v -0.079804 0.456418 0.397779
v -0.088942 0.486350 0.390798
v -0.079910 0.519604 0.379712
v -0.061341 0.547983 0.377959
v -0.032784 0.564219 0.377129
v -0.002437 0.498135 0.432670
v -0.001929 0.616839 0.073811
v 0.000731 0.655466 -0.083024
v -0.035781 0.609587 0.074427
v -0.033320 0.661105 -0.079219
v -0.063229 0.588497 0.066213
v -0.065765 0.634354 -0.091086
v -0.082743 0.559870 0.057966
v -0.092628 0.602284 -0.100929
v -0.088840 0.533603 0.053735
v -0.100886 0.567380 -0.105508
v -0.080913 0.494354 0.042091
v -0.096188 0.526035 -0.112234
v -0.055809 0.466278 0.036973
v -0.064478 0.500227 -0.125876
v -0.034461 0.451174 0.030706
v -0.041472 0.471509 -0.124519
v 0.000640 0.445733 0.032796
v 0.001061 0.466323 -0.123758
v 0.034139 0.449904 0.030258
v 0.037079 0.475712 -0.126895
v 0.055752 0.469362 0.037871
v 0.071395 0.497071 -0.122357
v 0.079455 0.496296 0.040794
v 0.091485 0.527804 -0.112505
v 0.086745 0.527970 0.050345
v 0.099847 0.567357 -0.105964
v 0.084299 0.568379 0.058135
v 0.094378 0.607476 -0.096278
v 0.062321 0.591323 0.064834
v 0.068637 0.638394 -0.089435
v 0.038636 0.607157 0.065338
v 0.037699 0.656228 -0.081832
v -0.020946 0.703637 -0.359659
v -0.004026 0.708692 -0.366578
v -0.050429 0.681689 -0.373182
v -0.075722 0.660468 -0.374079
v -0.075826 0.635391 -0.382447
v -0.068899 0.608125 -0.389226
v -0.052118 0.584569 -0.397047
v -0.028097 0.566104 -0.400103
v -0.000729 0.562159 -0.400485
v 0.021953 0.568018 -0.396397
v 0.052368 0.580024 -0.397641
v 0.071837 0.606898 -0.390555
v 0.075793 0.635267 -0.382689
v 0.070036 0.664983 -0.374099
v 0.044038 0.688190 -0.371006
v 0.029466 0.703487 -0.358437
v -0.004806 0.646826 -0.420559
v 0.000032 0.612870 -0.408677
v 0.001137 0.696119 -0.438853
v 0.025981 0.606248 -0.412124
v 0.040030 0.703543 -0.438846
v 0.051921 0.606717 -0.392151
v 0.061234 0.702064 -0.416926
v 0.068880 0.605002 -0.368886
v 0.081229 0.700677 -0.389124
v 0.068089 0.610009 -0.336581
v 0.086750 0.705764 -0.362151
v 0.069687 0.606013 -0.310081
v 0.080711 0.702401 -0.324597
v 0.052308 0.602223 -0.287769
v 0.065067 0.703770 -0.296385
v 0.027669 0.606600 -0.275633
v 0.026319 0.699327 -0.283807
v -0.004003 0.598614 -0.262547
v 0.007389 0.699752 -0.268905
v -0.028193 0.606313 -0.269888
v -0.033025 0.702115 -0.278000
v -0.050671 0.609988 -0.292488
v -0.062014 0.706297 -0.297743
v -0.070419 0.603702 -0.313530
v -0.074298 0.709067 -0.323050
v -0.073879 0.605819 -0.340178
v -0.086687 0.707928 -0.361632
v -0.069631 0.606667 -0.370018
v -0.083413 0.701033 -0.390080
v -0.056462 0.612860 -0.393252
v -0.061634 0.706355 -0.419293
v -0.031123 0.609453 -0.411612
v -0.036763 0.699826 -0.430273
v 0.027399 0.874281 -0.408529
v -0.008645 0.868133 -0.422337
v 0.050916 0.870588 -0.400314
v 0.059297 0.871303 -0.382036
v 0.058009 0.869391 -0.355020
v 0.060520 0.871975 -0.331324
v 0.046241 0.872678 -0.310891
v 0.027212 0.869025 -0.298720
v -0.000417 0.871368 -0.291990
v -0.022566 0.868131 -0.291245
v -0.046721 0.871728 -0.310727
v -0.062208 0.867991 -0.329068
v -0.064038 0.870820 -0.355909
v -0.058032 0.861957 -0.379142
v -0.046521 0.870550 -0.401829
v -0.025676 0.872388 -0.415935
v -0.003833 0.898600 -0.358216
v -0.001445 0.415373 0.240718
v 0.003123 0.626348 0.263710
v 0.025116 0.408412 0.235781
v 0.031683 0.617202 0.274315
v 0.046442 0.409281 0.255729
v 0.054625 0.615591 0.288647
v 0.069481 0.408845 0.279733
v 0.080480 0.622693 0.324204
v 0.080585 0.407197 0.310356
v 0.087082 0.619978 0.354356
v 0.067033 0.408228 0.333491
v 0.084823 0.619632 0.385238
v 0.052557 0.409415 0.355845
v 0.057507 0.616432 0.416522
v 0.026923 0.411880 0.377249
v 0.034749 0.618967 0.430109
v 0.001890 0.404692 0.386109
v 0.002672 0.618086 0.434753
v -0.029970 0.409159 0.383569
v -0.039305 0.624819 0.431340
v -0.050204 0.401819 0.356026
v -0.056206 0.622682 0.416775
v -0.070690 0.412474 0.333810
v -0.085260 0.615273 0.385341
v -0.076052 0.409062 0.306423
v -0.085391 0.617143 0.361207
v -0.064357 0.408004 0.282273
v -0.074867 0.615373 0.325675
v -0.048389 0.414506 0.248011
v -0.061734 0.619124 0.290115
v -0.036332 0.413697 0.243197
v -0.031949 0.618353 0.269122
v 0.030794 0.896534 0.292821
v 0.000419 0.888895 0.288679
v 0.037391 0.892008 0.302605
v 0.067684 0.886005 0.328290
v 0.064869 0.888886 0.353355
v 0.059400 0.889407 0.377299
v 0.045120 0.887151 0.397575
v 0.017699 0.894054 0.417331
v -0.005536 0.890623 0.420028
v -0.027412 0.889994 0.410525
v -0.047368 0.882185 0.397088
v -0.054180 0.890436 0.379715
v -0.062086 0.894285 0.358222
v -0.057351 0.886876 0.333187
v -0.046071 0.888961 0.307247
v -0.026570 0.889012 0.293101
v -0.002050 0.934786 0.348074
vn 0.0943 -0.0414 -0.9947
vn 0.6157 -0.0371 -0.7871
vn 0.7975 -0.0377 -0.6021
vn 0.9668 -0.0434 -0.2519
vn 0.9867 -0.0345 0.1586
vn 0.7844 -0.0343 0.6193
vn 0.5514 -0.0540 0.8325
vn 0.2768 -0.0478 0.9597
vn -0.2210 -0.0424 0.9743
vn -0.6399 -0.0565 0.7663
vn -0.8408 -0.0507 0.5389
vn -0.9867 -0.0452 0.1563
vn -0.9966 -0.0574 -0.0596
vn -0.7883 -0.0387 -0.6141
vn 0.7581 0.0404 -0.6508
vn -0.5741 -0.0340 -0.8181
vn -0.1504 -0.0237 -0.9883
vn -0.0165 -0.9999 -0.0002
vn -0.4233 0.6104 -0.6695
vn 0.1049 0.0553 0.9929
vn 0.0750 0.0384 -0.9964
vn -0.9941 0.0584 -0.0916
vn 0.8710 0.0502 0.4888
vn -0.9074 0.0551 0.4166
vn -0.1990 0.0341 -0.9794
vn 0.9812 0.0441 -0.1878
vn -0.0775 0.0557 0.9954
vn -0.8367 0.0434 -0.5460
vn 0.6658 0.0417 -0.7450
vn 0.5539 0.0487 0.8312
vn -0.9630 0.0545 0.2640
vn 0.9673 0.0496 0.2488
vn -0.5915 0.0517 0.8046
vn -0.5228 0.0374 -0.8516
vn 0.1296 0.5891 0.7976
vn 0.4047 0.5871 -0.7011
vn -0.2221 0.6084 -0.7619
vn -0.0896 0.5846 0.8064
vn 0.4911 0.5794 -0.6505
vn -0.5315 0.5800 0.6174
vn 0.5582 0.5833 -0.5900
vn -0.7073 0.5628 0.4278
vn 0.7990 0.5951 -0.0865
vn -0.7732 0.5685 0.2810
vn 0.7637 0.5723 0.2986
vn -0.8092 0.5813 -0.0859
vn 0.7408 0.5729 0.3507
vn -0.7320 0.5978 -0.3269
vn 0.4288 0.5937 0.6809
vn 0.2443 0.9196 -0.3078
vn 0.5253 0.7972 -0.2977
vn 0.8623 0.4533 -0.2259
vn 0.9796 0.1117 -0.1673
vn 0.9798 -0.1782 -0.0911
vn 0.8467 -0.5320 0.0066
vn 0.6238 -0.7775 0.0797
vn 0.1274 -0.9779 0.1661
vn -0.2571 -0.9542 0.1527
vn -0.5324 -0.8402 0.1029
vn -0.7825 -0.6191 0.0654
vn -0.9675 -0.2481 -0.0490
vn -0.9806 0.0926 -0.1727
vn -0.8494 0.4705 -0.2389
vn 0.8600 0.5104 -0.0044
vn -0.4195 0.8596 -0.2916
vn -0.2282 0.9174 -0.3261
vn 0.0153 -0.2466 -0.9690
vn -0.2827 0.5378 0.7943
vn 0.1626 -0.9134 0.3732
vn 0.3345 0.9314 -0.1438
vn -0.9689 0.2354 0.0765
vn 0.8829 -0.4091 0.2305
vn -0.8164 -0.5167 0.2580
vn -0.2775 0.9513 -0.1346
vn 0.9802 0.1696 0.1026
vn -0.2098 -0.9067 0.3659
vn -0.8291 0.5590 -0.0079
vn 0.5129 0.8511 -0.1122
vn 0.4934 -0.8010 0.3392
vn -0.9451 -0.2674 0.1877
vn 0.9871 -0.0476 0.1530
vn -0.5459 -0.7719 0.3257
vn -0.4537 0.8840 -0.1128
vn -0.0716 -0.2416 0.9677
vn 0.0392 0.6636 0.7471
vn 0.0686 0.6602 0.7480
vn 0.0189 -0.2366 0.9714
vn 0.2604 0.5732 0.7770
vn -0.5033 -0.0174 0.8639
vn 0.3729 0.4596 0.8061
vn -0.3082 -0.2053 0.9289
vn 0.4281 0.3229 0.8440
vn -0.4426 0.0733 0.8937
vn 0.4259 0.0553 0.9031
vn -0.4437 0.3896 0.8071
vn 0.5249 0.3264 0.7861
vn -0.4600 0.3514 0.8154
vn 0.0849 -0.1779 0.9804
vn -0.0047 0.9604 0.2787
vn -0.6531 0.7226 0.2264
vn -0.8067 0.5603 0.1881
vn -0.9704 0.2108 0.1174
vn -0.9848 -0.1659 0.0512
vn -0.7012 -0.7068 -0.0933
vn -0.7050 -0.7040 -0.0854
vn -0.1300 -0.9834 -0.1263
vn 0.1783 -0.9737 -0.1421
vn 0.6005 -0.7935 -0.0986
vn 0.8002 -0.5983 -0.0424
vn 0.9749 -0.2207 0.0286
vn 0.9926 0.0772 0.0936
vn 0.7573 0.6175 0.2126
vn -0.7207 0.6875 0.0888
vn 0.5341 0.8026 0.2655
vn 0.1353 0.9518 0.2753
vn 0.0141 -0.2349 0.9719
vn 0.1244 0.6980 -0.7052
vn -0.1207 -0.9377 -0.3258
vn 0.0466 0.9847 0.1678
vn 0.9842 0.1706 -0.0473
vn -0.7427 -0.6239 -0.2431
vn 0.8338 -0.5114 -0.2080
vn 0.0388 0.9837 0.1756
vn -0.9883 0.1468 -0.0417
vn 0.2429 -0.9148 -0.3226
vn 0.7274 0.6829 0.0674
vn -0.6383 0.7644 0.0907
vn -0.6895 -0.6781 -0.2544
vn 0.9812 -0.1530 -0.1178
vn -0.9814 -0.1405 -0.1308
vn 0.4492 -0.8419 -0.2990
vn 0.6142 0.7828 0.1000
vn -0.0471 -0.2326 -0.9714
vn -0.4503 0.5902 -0.6700
vn 0.2745 0.6302 -0.7263
vn 0.2266 -0.2143 -0.9501
vn -0.1950 0.6909 -0.6962
vn 0.0678 -0.2713 -0.9601
vn -0.4008 0.5099 -0.7612
vn 0.3584 -0.0135 -0.9335
vn -0.4886 0.2780 -0.8270
vn 0.4394 0.1826 -0.8795
vn -0.4825 0.0940 -0.8709
vn 0.4399 0.3270 -0.8364
vn -0.4342 -0.0102 -0.9008
vn 0.3614 0.5090 -0.7812
vn -0.2512 -0.1690 -0.9531
vn -0.0469 -0.2967 -0.9538
vn 0.6363 -0.2703 -0.7225
vn 0.7827 -0.2255 -0.5801
vn 0.9840 -0.1712 -0.0494
vn 0.9885 -0.1418 0.0523
vn 0.8373 -0.0369 0.5455
vn 0.3626 0.0591 0.9301
vn 0.4789 0.0409 0.8769
vn -0.2342 0.0790 0.9690
vn -0.6353 0.0002 0.7723
vn -0.8218 -0.0203 0.5695
vn -0.9710 -0.0430 0.2353
vn -0.9815 -0.1562 -0.1105
vn -0.7887 -0.2204 -0.5739
vn 0.8464 0.1168 -0.5195
vn -0.5245 -0.2301 -0.8197
vn -0.0796 -0.2718 -0.9590
vn -0.0114 -0.9992 -0.0388
vn -0.2861 0.9086 -0.3044
vn 0.4242 0.1087 0.8990
vn 0.1542 0.1437 -0.9775
vn -0.9632 0.1542 -0.2200
vn 0.8470 0.1300 0.5155
vn -0.8403 0.1021 0.5324
vn -0.2503 0.0873 -0.9642
vn 0.9845 0.1529 -0.0862
vn -0.1330 0.1071 0.9853
vn -0.8500 0.1500 -0.5050
vn 0.5644 0.1505 -0.8117
vn 0.3799 0.1000 0.9196
vn -0.9712 0.1050 0.2138
vn 0.9877 0.1450 0.0588
vn -0.5799 0.1089 0.8073
vn -0.4682 0.1191 -0.8755
vn 0.1671 0.9149 0.3676
vn 0.0107 0.9029 -0.4298
vn 0.0623 0.8997 -0.4321
vn -0.1210 0.9159 0.3828
vn 0.2473 0.9236 -0.2929
vn -0.1627 0.9145 0.3705
vn 0.3295 0.9254 -0.1873
vn -0.3984 0.9045 0.1521
vn 0.4220 0.9027 0.0840
vn -0.4119 0.9029 0.1232
vn 0.4287 0.8921 -0.1427
vn -0.3943 0.8201 -0.4148
vn 0.3092 0.9331 0.1840
vn -0.5664 0.8237 0.0246
vn 0.0859 0.9093 0.4072
vn 0.1417 0.1399 -0.9800
vn 0.6095 0.1134 -0.7846
vn 0.7657 0.0825 -0.6378
vn 0.9603 0.0184 -0.2784
vn 0.9526 -0.1178 0.2803
vn 0.7761 -0.2026 0.5971
vn 0.5532 -0.2361 0.7989
vn 0.2547 -0.2318 0.9388
vn -0.1115 -0.2200 0.9691
vn -0.7141 -0.1924 0.6731
vn -0.7247 -0.2092 0.6565
vn -0.9904 -0.0856 0.1082
vn -0.9359 0.0381 -0.3502
vn -0.9241 0.0256 -0.3814
vn 0.7350 0.0635 -0.6750
vn -0.5170 0.1293 -0.8462
vn -0.1275 0.1186 -0.9847
vn -0.0036 -0.9995 -0.0305
vn -0.3618 0.7894 -0.4959
vn 0.1271 0.0556 0.9903
vn 0.2439 0.0792 -0.9666
vn -0.9643 0.0738 -0.2541
vn 0.7710 0.0853 0.6311
vn -0.8020 0.0878 0.5908
vn -0.1671 0.0910 -0.9817
vn 0.9955 0.0659 -0.0684
vn -0.1918 0.0660 0.9792
vn -0.9293 0.0734 -0.3619
vn 0.6392 0.0656 -0.7662
vn 0.5619 0.0782 0.8235
vn -0.9778 0.0992 0.1847
vn 0.9863 0.0895 0.1387
vn -0.6172 0.0848 0.7823
vn -0.5776 0.0842 -0.8119
vn -0.0654 0.8519 0.5197
vn -0.1139 0.7839 -0.6104
vn -0.0968 0.7857 -0.6110
vn -0.2408 0.8324 0.4992
vn 0.6690 0.7349 -0.1111
vn -0.5323 0.7753 0.3399
vn 0.4646 0.8096 -0.3587
vn -0.3555 0.7825 0.5111
vn 0.5670 0.8231 -0.0309
vn -0.4905 0.8085 0.3252
vn 0.5564 0.8237 0.1092
vn -0.5656 0.7555 -0.3306
vn 0.4211 0.8199 0.3878
vn -0.6093 0.7664 -0.2033
vn 0.4579 0.8172 0.3500
vt 1.000000 0.500000
vt 1.000000 1.000000
vt 0.937500 1.000000
vt 0.937500 0.500000
vt 0.875000 1.000000
vt 0.875000 0.500000
vt 0.812500 1.000000
vt 0.812500 0.500000
vt 0.750000 1.000000
vt 0.750000 0.500000
vt 0.687500 1.000000
vt 0.687500 0.500000
vt 0.625000 1.000000
vt 0.625000 0.500000
vt 0.562500 1.000000
vt 0.562500 0.500000
vt 0.500000 1.000000
vt 0.500000 0.500000
vt 0.437500 1.000000
vt 0.437500 0.500000
vt 0.375000 1.000000
vt 0.375000 0.500000
vt 0.312500 1.000000
vt 0.312500 0.500000
vt 0.250000 1.000000
vt 0.250000 0.500000
vt 0.187500 1.000000
vt 0.187500 0.500000
vt 0.125000 1.000000
vt 0.125000 0.500000
vt 0.062500 1.000000
vt 0.062500 0.500000
vt 0.000000 1.000000
vt 0.000000 0.500000
vt 0.750000 0.490000
vt 0.841844 0.471731
vt 0.919706 0.419706
vt 0.971731 0.341844
vt 0.990000 0.250000
vt 0.971731 0.158156
vt 0.919706 0.080294
vt 0.841844 0.028269
vt 0.750000 0.010000
vt 0.658156 0.028269
vt 0.580294 0.080294
vt 0.528269 0.158156
vt 0.510000 0.250000
vt 0.528269 0.341844
vt 0.580294 0.419706
vt 0.658156 0.471731
s 0
f 1/1/1 2/2/1 4/3/1 3/4/1
f 3/4/2 4/3/2 6/5/2 5/6/2
f 5/6/3 6/5/3 8/7/3 7/8/3
f 7/8/4 8/7/4 10/9/4 9/10/4
f 9/10/5 10/9/5 12/11/5 11/12/5
f 11/12/6 12/11/6 14/13/6 13/14/6
f 13/14/7 14/13/7 16/15/7 15/16/7
f 15/16/8 16/15/8 18/17/8 17/18/8
f 17/18/9 18/17/9 20/19/9 19/20/9
f 19/20/10 20/19/10 22/21/10 21/22/10
f 21/22/11 22/21/11 24/23/11 23/24/11
f 23/24/12 24/23/12 26/25/12 25/26/12
f 25/26/13 26/25/13 28/27/13 27/28/13
f 27/28/14 28/27/14 30/29/14 29/30/14
f 8/7/15 6/5/15 35/5/15 36/7/15
f 29/30/16 30/29/16 32/31/16 31/32/16
f 31/32/17 32/31/17 2/33/17 1/34/17
f 1/35/18 3/36/18 5/37/18 7/38/18 9/39/18 11/40/18 13/41/18 15/42/18 17/43/18 19/44/18 21/45/18 23/46/18 25/47/18 27/48/18 29/49/18 31/50/18
f 48/31/19 47/29/19 49/31/19
f 18/17/20 16/15/20 40/15/20 41/17/20
f 4/3/21 2/2/21 34/2/21 33/3/21
f 28/27/22 26/25/22 45/25/22 46/27/22
f 14/13/23 12/11/23 38/11/23 39/13/23
f 24/23/24 22/21/24 43/21/24 44/23/24
f 2/33/25 32/31/25 48/31/25 34/33/25
f 10/9/26 8/7/26 36/7/26 37/9/26
f 20/19/27 18/17/27 41/17/27 42/19/27
f 30/29/28 28/27/28 46/27/28 47/29/28
f 6/5/29 4/3/29 33/3/29 35/5/29
f 16/15/30 14/13/30 39/13/30 40/15/30
f 26/25/31 24/23/31 44/23/31 45/25/31
f 12/11/32 10/9/32 37/9/32 38/11/32
f 22/21/33 20/19/33 42/19/33 43/21/33
f 32/31/34 30/29/34 47/29/34 48/31/34
f 41/17/35 40/15/35 49/17/35
f 33/3/36 34/2/36 49/3/36
f 34/33/37 48/31/37 49/33/37
f 42/19/38 41/17/38 49/19/38
f 35/5/39 33/3/39 49/5/39
f 43/21/40 42/19/40 49/21/40
f 36/7/41 35/5/41 49/7/41
f 44/23/42 43/21/42 49/23/42
f 37/9/43 36/7/43 49/9/43
f 45/25/44 44/23/44 49/25/44
f 38/11/45 37/9/45 49/11/45
f 46/27/46 45/25/46 49/27/46
f 39/13/47 38/11/47 49/13/47
f 47/29/48 46/27/48 49/29/48
f 40/15/49 39/13/49 49/15/49
f 50/1/50 51/2/50 53/3/50 52/4/50
f 52/4/51 53/3/51 55/5/51 54/6/51
f 54/6/52 55/5/52 57/7/52 56/8/52
f 56/8/53 57/7/53 59/9/53 58/10/53
f 58/10/54 59/9/54 61/11/54 60/12/54
f 60/12/55 61/11/55 63/13/55 62/14/55
f 62/14/56 63/13/56 65/15/56 64/16/56
f 64/16/57 65/15/57 67/17/57 66/18/57
f 66/18/58 67/17/58 69/19/58 68/20/58
f 68/20/59 69/19/59 71/21/59 70/22/59
f 70/22/60 71/21/60 73/23/60 72/24/60
f 72/24/61 73/23/61 75/25/61 74/26/61
f 74/26/62 75/25/62 77/27/62 76/28/62
f 76/28/63 77/27/63 79/29/63 78/30/63
f 57/7/64 55/5/64 84/5/64 85/7/64
f 78/30/65 79/29/65 81/31/65 80/32/65
f 80/32/66 81/31/66 51/33/66 50/34/66
f 50/35/67 52/36/67 54/37/67 56/38/67 58/39/67 60/40/67 62/41/67 64/42/67 66/43/67 68/44/67 70/45/67 72/46/67 74/47/67 76/48/67 78/49/67 80/50/67
f 97/31/68 96/29/68 98/31/68
f 67/17/69 65/15/69 89/15/69 90/17/69
f 53/3/70 51/2/70 83/2/70 82/3/70
f 77/27/71 75/25/71 94/25/71 95/27/71
f 63/13/72 61/11/72 87/11/72 88/13/72
f 73/23/73 71/21/73 92/21/73 93/23/73
f 51/33/74 81/31/74 97/31/74 83/33/74
f 59/9/75 57/7/75 85/7/75 86/9/75
f 69/19/76 67/17/76 90/17/76 91/19/76
f 79/29/77 77/27/77 95/27/77 96/29/77
f 55/5/78 53/3/78 82/3/78 84/5/78
f 65/15/79 63/13/79 88/13/79 89/15/79
f 75/25/80 73/23/80 93/23/80 94/25/80
f 61/11/81 59/9/81 86/9/81 87/11/81
f 71/21/82 69/19/82 91/19/82 92/21/82
f 81/31/83 79/29/83 96/29/83 97/31/83
f 90/17/84 89/15/84 98/17/84
f 82/3/85 83/2/85 98/3/85
f 83/33/86 97/31/86 98/33/86
f 91/19/87 90/17/87 98/19/87
f 84/5/88 82/3/88 98/5/88
f 92/21/89 91/19/89 98/21/89
f 85/7/90 84/5/90 98/7/90
f 93/23/91 92/21/91 98/23/91
f 86/9/92 85/7/92 98/9/92
f 94/25/93 93/23/93 98/25/93
f 87/11/94 86/9/94 98/11/94
f 95/27/95 94/25/95 98/27/95
f 88/13/96 87/11/96 98/13/96
f 96/29/97 95/27/97 98/29/97
f 89/15/98 88/13/98 98/15/98
f 99/1/99 100/2/99 102/3/99 101/4/99
f 101/4/100 102/3/100 104/5/100 103/6/100
f 103/6/101 104/5/101 106/7/101 105/8/101
f 105/8/102 106/7/102 108/9/102 107/10/102
f 107/10/103 108/9/103 110/11/103 109/12/103
f 109/12/104 110/11/104 112/13/104 111/14/104
f 111/14/105 112/13/105 114/15/105 113/16/105
f 113/16/106 114/15/106 116/17/106 115/18/106
f 115/18/107 116/17/107 118/19/107 117/20/107
f 117/20/108 118/19/108 120/21/108 119/22/108
f 119/22/109 120/21/109 122/23/109 121/24/109
f 121/24/110 122/23/110 124/25/110 123/26/110
f 123/26/111 124/25/111 126/27/111 125/28/111
f 125/28/112 126/27/112 128/29/112 127/30/112
f 106/7/113 104/5/113 133/5/113 134/7/113
f 127/30/114 128/29/114 130/31/114 129/32/114
f 129/32/115 130/31/115 100/33/115 99/34/115
f 99/35/116 101/36/116 103/37/116 105/38/116 107/39/116 109/40/116 111/41/116 113/42/116 115/43/116 117/44/116 119/45/116 121/46/116 123/47/116 125/48/116 127/49/116 129/50/116
f 146/31/117 145/29/117 147/31/117
f 116/17/118 114/15/118 138/15/118 139/17/118
f 102/3/119 100/2/119 132/2/119 131/3/119
f 126/27/120 124/25/120 143/25/120 144/27/120
f 112/13/121 110/11/121 136/11/121 137/13/121
f 122/23/122 120/21/122 141/21/122 142/23/122
f 100/33/123 130/31/123 146/31/123 132/33/123
f 108/9/124 106/7/124 134/7/124 135/9/124
f 118/19/125 116/17/125 139/17/125 140/19/125
f 128/29/126 126/27/126 144/27/126 145/29/126
f 104/5/127 102/3/127 131/3/127 133/5/127
f 114/15/128 112/13/128 137/13/128 138/15/128
f 124/25/129 122/23/129 142/23/129 143/25/129
f 110/11/130 108/9/130 135/9/130 136/11/130
f 120/21/131 118/19/131 140/19/131 141/21/131
f 130/31/132 128/29/132 145/29/132 146/31/132
f 139/17/133 138/15/133 147/17/133
f 131/3/134 132/2/134 147/3/134
f 132/33/135 146/31/135 147/33/135
f 140/19/136 139/17/136 147/19/136
f 133/5/137 131/3/137 147/5/137
f 141/21/138 140/19/138 147/21/138
f 134/7/139 133/5/139 147/7/139
f 142/23/140 141/21/140 147/23/140
f 135/9/141 134/7/141 147/9/141
f 143/25/142 142/23/142 147/25/142
f 136/11/143 135/9/143 147/11/143
f 144/27/144 143/25/144 147/27/144
f 137/13/145 136/11/145 147/13/145
f 145/29/146 144/27/146 147/29/146
f 138/15/147 137/13/147 147/15/147
f 148/1/148 149/2/148 151/3/148 150/4/148
f 150/4/149 151/3/149 153/5/149 152/6/149
f 152/6/150 153/5/150 155/7/150 154/8/150
f 154/8/151 155/7/151 157/9/151 156/10/151
f 156/10/152 157/9/152 159/11/152 158/12/152
f 158/12/153 159/11/153 161/13/153 160/14/153
f 160/14/154 161/13/154 163/15/154 162/16/154
f 162/16/155 163/15/155 165/17/155 164/18/155
f 164/18/156 165/17/156 167/19/156 166/20/156
f 166/20/157 167/19/157 169/21/157 168/22/157
f 168/22/158 169/21/158 171/23/158 170/24/158
f 170/24/159 171/23/159 173/25/159 172/26/159
f 172/26/160 173/25/160 175/27/160 174/28/160
f 174/28/161 175/27/161 177/29/161 176/30/161
f 155/7/162 153/5/162 182/5/162 183/7/162
f 176/30/163 177/29/163 179/31/163 178/32/163
f 178/32/164 179/31/164 149/33/164 148/34/164
f 148/35/165 150/36/165 152/37/165 154/38/165 156/39/165 158/40/165 160/41/165 162/42/165 164/43/165 166/44/165 168/45/165 170/46/165 172/47/165 174/48/165 176/49/165 178/50/165
f 195/31/166 194/29/166 196/31/166
f 165/17/167 163/15/167 187/15/167 188/17/167
f 151/3/168 149/2/168 181/2/168 180/3/168
f 175/27/169 173/25/169 192/25/169 193/27/169
f 161/13/170 159/11/170 185/11/170 186/13/170
f 171/23/171 169/21/171 190/21/171 191/23/171
f 149/33/172 179/31/172 195/31/172 181/33/172
f 157/9/173 155/7/173 183/7/173 184/9/173
f 167/19/174 165/17/174 188/17/174 189/19/174
f 177/29/175 175/27/175 193/27/175 194/29/175
f 153/5/176 151/3/176 180/3/176 182/5/176
f 163/15/177 161/13/177 186/13/177 187/15/177
f 173/25/178 171/23/178 191/23/178 192/25/178
f 159/11/179 157/9/179 184/9/179 185/11/179
f 169/21/180 167/19/180 189/19/180 190/21/180
f 179/31/181 177/29/181 194/29/181 195/31/181
f 188/17/182 187/15/182 196/17/182
f 180/3/183 181/2/183 196/3/183
f 181/33/184 195/31/184 196/33/184
f 189/19/185 188/17/185 196/19/185
f 182/5/186 180/3/186 196/5/186
f 190/21/187 189/19/187 196/21/187
f 183/7/188 182/5/188 196/7/188
f 191/23/189 190/21/189 196/23/189
f 184/9/190 183/7/190 196/9/190
f 192/25/191 191/23/191 196/25/191
f 185/11/192 184/9/192 196/11/192
f 193/27/193 192/25/193 196/27/193
f 186/13/194 185/11/194 196/13/194
f 194/29/195 193/27/195 196/29/195
f 187/15/196 186/13/196 196/15/196
f 197/1/197 198/2/197 200/3/197 199/4/197
f 199/4/198 200/3/198 202/5/198 201/6/198
f 201/6/199 202/5/199 204/7/199 203/8/199
f 203/8/200 204/7/200 206/9/200 205/10/200
f 205/10/201 206/9/201 208/11/201 207/12/201
f 207/12/202 208/11/202 210/13/202 209/14/202
f 209/14/203 210/13/203 212/15/203 211/16/203
f 211/16/204 212/15/204 214/17/204 213/18/204
f 213/18/205 214/17/205 216/19/205 215/20/205
f 215/20/206 216/19/206 218/21/206 217/22/206
f 217/22/207 218/21/207 220/23/207 219/24/207
f 219/24/208 220/23/208 222/25/208 221/26/208
f 221/26/209 222/25/209 224/27/209 223/28/209
f 223/28/210 224/27/210 226/29/210 225/30/210
f 204/7/211 202/5/211 231/5/211 232/7/211
f 225/30/212 226/29/212 228/31/212 227/32/212
f 227/32/213 228/31/213 198/33/213 197/34/213
f 197/35/214 199/36/214 201/37/214 203/38/214 205/39/214 207/40/214 209/41/214 211/42/214 213/43/214 215/44/214 217/45/214 219/46/214 221/47/214 223/48/214 225/49/214 227/50/214
f 244/31/215 243/29/215 245/31/215
f 214/17/216 212/15/216 236/15/216 237/17/216
f 200/3/217 198/2/217 230/2/217 229/3/217
f 224/27/218 222/25/218 241/25/218 242/27/218
f 210/13/219 208/11/219 234/11/219 235/13/219
f 220/23/220 218/21/220 239/21/220 240/23/220
f 198/33/221 228/31/221 244/31/221 230/33/221
f 206/9/222 204/7/222 232/7/222 233/9/222
f 216/19/223 214/17/223 237/17/223 238/19/223
f 226/29/224 224/27/224 242/27/224 243/29/224
f 202/5/225 200/3/225 229/3/225 231/5/225
f 212/15/226 210/13/226 235/13/226 236/15/226
f 222/25/227 220/23/227 240/23/227 241/25/227
f 208/11/228 206/9/228 233/9/228 234/11/228
f 218/21/229 216/19/229 238/19/229 239/21/229
f 228/31/230 226/29/230 243/29/230 244/31/230
f 237/17/231 236/15/231 245/17/231
f 229/3/232 230/2/232 245/3/232
f 230/33/233 244/31/233 245/33/233
f 238/19/234 237/17/234 245/19/234
f 231/5/235 229/3/235 245/5/235
f 239/21/236 238/19/236 245/21/236
f 232/7/237 231/5/237 245/7/237
f 240/23/238 239/21/238 245/23/238
f 233/9/239 232/7/239 245/9/239
f 241/25/240 240/23/240 245/25/240
f 234/11/241 233/9/241 245/11/241
f 242/27/242 241/25/242 245/27/242
f 235/13/243 234/11/243 245/13/243
f 243/29/244 242/27/244 245/29/244
f 236/15/245 235/13/245 245/15/245
