# Blender 3.6.5
# www.blender.org
mtllib feng.mtl
o fenge
v 0.100000 0.500000 0.800000
v 0.100000 -0.500000 0.800000
v 0.100000 0.500000 1.000000
v 0.100000 -0.500000 1.000000
v -0.100000 0.500000 0.800000
v -0.100000 -0.500000 0.800000
v -0.100000 0.500000 1.000000
v -0.100000 -0.500000 1.000000
v 0.077092 0.387170 -0.837369
v 0.077092 0.195723 -0.837369
v 0.077092 0.387170 0.837369
v 0.077092 0.195723 0.837369
v -0.077092 0.387170 -0.837369
v -0.077092 0.195723 -0.837369
v -0.077092 0.387170 0.837369
v -0.077092 0.195723 0.837369
v 0.077092 0.004277 -0.837369
v 0.077092 -0.187170 -0.837369
v 0.077092 0.004277 0.837369
v 0.077092 -0.187170 0.837369
v -0.077092 0.004277 -0.837369
v -0.077092 -0.187170 -0.837369
v -0.077092 0.004277 0.837369
v -0.077092 -0.187170 0.837369
v 0.100000 0.500000 -1.000000
v 0.100000 -0.500000 -1.000000
v 0.100000 0.500000 -0.800000
v 0.100000 -0.500000 -0.800000
v -0.100000 0.500000 -1.000000
v -0.100000 -0.500000 -1.000000
v -0.100000 0.500000 -0.800000
v -0.100000 -0.500000 -0.800000
vn 1.0000 -0.0000 -0.0000
vn -0.0000 -0.0000 1.0000
vn -1.0000 -0.0000 -0.0000
vn -0.0000 -0.0000 -1.0000
vn -0.0000 1.0000 -0.0000
vn -0.0000 -1.0000 -0.0000
vt 0.375000 0.000000
vt 0.375000 0.250000
vt 0.625000 0.250000
vt 0.625000 0.000000
vt 0.375000 0.500000
vt 0.625000 0.500000
vt 0.375000 0.750000
vt 0.625000 0.750000
vt 0.375000 1.000000
vt 0.625000 1.000000
vt 0.125000 0.500000
vt 0.125000 0.750000
vt 0.875000 0.750000
vt 0.875000 0.500000
s 0
f 1/1/1 3/2/1 4/3/1 2/4/1
f 3/2/2 7/5/2 8/6/2 4/3/2
f 7/5/3 5/7/3 6/8/3 8/6/3
f 5/7/4 1/9/4 2/10/4 6/8/4
f 3/11/5 1/12/5 5/7/5 7/5/5
f 8/6/6 6/8/6 2/13/6 4/14/6
f 9/1/1 11/2/1 12/3/1 10/4/1
f 11/2/2 15/5/2 16/6/2 12/3/2
f 15/5/3 13/7/3 14/8/3 16/6/3
f 13/7/4 9/9/4 10/10/4 14/8/4
f 11/11/5 9/12/5 13/7/5 15/5/5
f 16/6/6 14/8/6 10/13/6 12/14/6
f 17/1/1 19/2/1 20/3/1 18/4/1
f 19/2/2 23/5/2 24/6/2 20/3/2
f 23/5/3 21/7/3 22/8/3 24/6/3
f 21/7/4 17/9/4 18/10/4 22/8/4
f 19/11/5 17/12/5 21/7/5 23/5/5
f 24/6/6 22/8/6 18/13/6 20/14/6
f 25/1/1 27/2/1 28/3/1 26/4/1
f 27/2/2 31/5/2 32/6/2 28/3/2
f 31/5/3 29/7/3 30/8/3 32/6/3
f 29/7/4 25/9/4 26/10/4 30/8/4
f 27/11/5 25/12/5 29/7/5 31/5/5
f 32/6/6 30/8/6 26/13/6 28/14/6
