# Blender 3.6.5
# www.blender.org
mtllib rog2.mtl
o Cube.001
v 0.000000 1.706499 -5.184606
v -0.438918 1.606891 -10.070750
v 0.000000 -0.000000 -4.785524
v 0.000000 0.000000 -10.893893
v 0.000000 0.589724 -10.520733
v -0.426691 1.905073 -10.111239
v 0.000000 2.208704 -9.319691
v 0.456107 2.749066 -8.719466
v 0.456107 3.492871 -8.567303
v 0.000000 2.159569 -5.856034
v 0.000000 3.973212 -6.436596
v 0.000000 4.003446 -7.717752
v 3.005607 1.706499 -7.648755
v -2.159938 1.134084 -8.067654
v 3.404689 0.000000 -7.648755
v -2.534655 0.000000 -9.049464
v -2.517725 0.589724 -8.573483
v -2.345377 1.642383 -8.067654
v -1.129478 1.914186 -8.190213
v -0.529253 2.749066 -8.190213
v -0.552880 3.492871 -8.190213
v 2.334179 2.304565 -7.648754
v 1.318125 3.733574 -8.074656
v 0.950664 4.003446 -7.698131
v -1.269384 0.000000 -9.921298
v -0.617947 0.073965 -10.086792
v -2.370573 0.000000 -7.110831
v -1.147673 0.000000 -6.264722
v -0.764785 0.000000 -5.304459
v 1.214612 0.000000 -9.831448
v 3.053953 0.000000 -8.962513
v 2.354435 0.000000 -5.136953
v 1.486401 0.000000 -4.712294
v -0.295807 3.231260 -8.534281
v -0.498375 2.510981 -8.776579
v 0.928761 2.002803 -8.882829
v -0.846903 1.799957 -8.782273
v -1.939527 1.487703 -8.938196
v -1.727418 0.993467 -8.942877
v -1.717153 0.504784 -9.366245
v 0.879113 1.505916 -9.578666
v 0.116909 0.294698 -10.634250
v 1.078663 0.586604 -10.195248
v 2.291791 1.365472 -8.550323
v 2.393288 0.683914 -9.087415
v 3.027956 0.910585 -8.087289
v -1.960292 0.829916 -7.094559
v -1.501190 1.551375 -6.380271
v -1.736965 1.213109 -7.120121
v -1.685676 1.726776 -7.578681
v -1.212128 2.138216 -6.758945
v -1.114264 2.156838 -7.699856
v -0.983477 3.445862 -7.764800
v 1.936816 2.912147 -7.136869
v 0.963528 3.597354 -6.747225
v 1.530506 3.041778 -6.556455
v 2.502054 1.660073 -6.863661
v 2.405133 0.767106 -5.978174
v 1.958818 1.702411 -6.350396
v 1.296223 1.776251 -6.095455
v 0.654591 2.504740 -5.925893
v 1.040959 1.282043 -5.674535
v 1.932866 0.474831 -5.527567
v 1.217957 0.701493 -5.165207
v -0.776632 2.787235 -7.010379
v -0.809231 2.105024 -5.701629
v -0.611710 1.475808 -5.288066
v -0.584249 0.000000 -5.946611
vn -0.2326 0.7473 -0.6224
vn -0.0649 0.2680 -0.9612
vn -0.9107 0.1734 -0.3749
vn 0.0338 0.8532 -0.5204
vn 0.4987 0.1251 -0.8577
vn 0.4993 0.4749 -0.7247
vn 0.5909 0.4249 -0.6858
vn -0.3996 0.5947 -0.6976
vn -0.7953 0.4894 -0.3578
vn -0.2316 0.9315 -0.2803
vn -0.8682 -0.3426 -0.3590
vn -0.5682 0.6477 -0.5076
vn -0.5498 0.4478 -0.7051
vn -0.3548 0.9342 -0.0383
vn -0.5830 -0.1828 -0.7917
vn -0.6218 0.2458 -0.7436
vn -0.4879 0.1827 -0.8536
vn 0.3151 0.6229 -0.7161
vn -0.6200 0.4195 -0.6630
vn 0.2435 0.5456 -0.8019
vn 0.5735 -0.0839 -0.8149
vn 0.4528 0.6499 -0.6104
vn 0.5152 0.5627 -0.6464
vn 0.5309 0.0069 -0.8474
vn 0.5816 0.4930 -0.6470
vn 0.6572 0.5289 -0.5369
vn 0.9264 0.2459 -0.2853
vn -0.9568 0.2233 0.1863
vn -0.6900 0.0466 0.7223
vn -0.8705 0.3898 0.3004
vn -0.7972 0.1569 0.5830
vn -0.8729 0.4846 0.0566
vn -0.3713 0.9270 -0.0537
vn -0.7552 0.2413 -0.6095
vn -0.6384 0.4922 -0.5918
vn 0.7741 0.6316 0.0426
vn 0.2165 0.9584 0.1861
vn 0.6259 0.7234 0.2914
vn 0.7737 0.5607 0.2949
vn 0.8565 0.2529 0.4500
vn 0.6245 0.4723 0.6220
vn 0.6214 0.3095 0.7198
vn 0.3809 0.3725 0.8463
vn 0.2165 0.4054 0.8881
vn 0.2516 0.2705 0.9292
vn 0.3609 0.4889 0.7942
vn 0.7821 0.4363 0.4450
vn 0.4029 0.6776 0.6153
vn 0.4300 0.5982 0.6762
vn 0.5204 0.6796 0.5169
vn 0.0949 0.3414 0.9351
vn -0.7816 0.6062 0.1473
vn -0.9356 0.3030 0.1812
vn -0.7234 0.6284 0.2861
vn -0.6848 0.3390 0.6451
vn -0.4249 0.8852 0.1897
vn -0.1136 0.6930 0.7119
vn -0.4264 0.1282 0.8954
vn -0.9998 -0.0204 0.0039
vn -0.5840 -0.1208 0.8027
vn -0.0015 -1.0000 -0.0020
vt 0.000000 0.000000
s 0
f 34/1/1 21/1/1 12/1/1 9/1/1
f 8/1/2 35/1/2 34/1/2 9/1/2
f 20/1/3 21/1/3 34/1/3 35/1/3
f 12/1/4 24/1/4 23/1/4 9/1/4
f 9/1/5 23/1/5 22/1/5 8/1/5
f 7/1/6 8/1/6 22/1/6 36/1/6
f 6/1/7 7/1/7 36/1/7 2/1/7
f 7/1/8 37/1/8 35/1/8 8/1/8
f 19/1/9 20/1/9 35/1/9 37/1/9
f 18/1/10 19/1/10 37/1/10 38/1/10
f 39/1/11 14/1/11 18/1/11 38/1/11
f 17/1/12 14/1/12 39/1/12 40/1/12
f 25/1/13 16/1/13 17/1/13 40/1/13
f 6/1/14 38/1/14 37/1/14 7/1/14
f 2/1/15 39/1/15 38/1/15 6/1/15
f 5/1/16 40/1/16 39/1/16 2/1/16
f 25/1/17 40/1/17 5/1/17 26/1/17
f 41/1/18 5/1/18 2/1/18 36/1/18
f 42/1/19 4/1/19 26/1/19 5/1/19
f 41/1/20 43/1/20 42/1/20 5/1/20
f 30/1/21 4/1/21 42/1/21 43/1/21
f 44/1/22 41/1/22 36/1/22 22/1/22
f 43/1/23 41/1/23 44/1/23 45/1/23
f 31/1/24 30/1/24 43/1/24 45/1/24
f 46/1/25 44/1/25 22/1/25 13/1/25
f 44/1/26 46/1/26 31/1/26 45/1/26
f 13/1/27 15/1/27 31/1/27 46/1/27
f 47/1/28 17/1/28 16/1/28 27/1/28
f 28/1/29 48/1/29 47/1/29 27/1/29
f 49/1/30 14/1/30 17/1/30 47/1/30
f 18/1/31 14/1/31 49/1/31 50/1/31
f 48/1/32 51/1/32 49/1/32 47/1/32
f 52/1/33 19/1/33 18/1/33 50/1/33
f 53/1/34 20/1/34 19/1/34 52/1/34
f 20/1/35 53/1/35 12/1/35 21/1/35
f 54/1/36 22/1/36 23/1/36 24/1/36
f 55/1/37 24/1/37 12/1/37 11/1/37
f 54/1/38 24/1/38 55/1/38 56/1/38
f 57/1/39 13/1/39 22/1/39 54/1/39
f 58/1/40 15/1/40 13/1/40 57/1/40
f 59/1/41 58/1/41 57/1/41 54/1/41
f 56/1/42 60/1/42 59/1/42 54/1/42
f 61/1/43 60/1/43 56/1/43 55/1/43
f 10/1/44 61/1/44 55/1/44 11/1/44
f 62/1/45 60/1/45 61/1/45 10/1/45
f 58/1/46 59/1/46 60/1/46 62/1/46
f 32/1/47 15/1/47 58/1/47 63/1/47
f 33/1/48 32/1/48 63/1/48 64/1/48
f 62/1/49 64/1/49 63/1/49 58/1/49
f 1/1/50 64/1/50 62/1/50 10/1/50
f 1/1/51 3/1/51 33/1/51 64/1/51
f 50/1/52 49/1/52 51/1/52 52/1/52
f 53/1/53 52/1/53 51/1/53 65/1/53
f 11/1/54 12/1/54 53/1/54 65/1/54
f 11/1/55 65/1/55 51/1/55 10/1/55
f 48/1/56 66/1/56 10/1/56 51/1/56
f 67/1/57 1/1/57 10/1/57 66/1/57
f 1/1/58 67/1/58 29/1/58 3/1/58
f 67/1/59 66/1/59 68/1/59 29/1/59
f 48/1/60 28/1/60 68/1/60 66/1/60
f 26/1/61 4/1/61 30/1/61 31/1/61 15/1/61 32/1/61 33/1/61 3/1/61 29/1/61 68/1/61 28/1/61 27/1/61 16/1/61 25/1/61
