# Blender 3.6.5
# www.blender.org
mtllib rog3.mtl
o Cube.002
v 0.000000 2.730975 -13.184607
v 0.000000 1.624008 -18.966423
v 0.000000 -0.000000 -12.785524
v 0.000000 0.000000 -18.724869
v 0.000000 0.589724 -18.520733
v 0.000000 3.347320 -18.738342
v 0.000000 3.545690 -18.094669
v 0.000000 2.749066 -16.719467
v 0.000000 3.492871 -16.743093
v 0.000000 2.186163 -13.856034
v 0.000000 3.973212 -14.436596
v 0.000000 7.133205 -18.238735
v -1.017683 7.813463 -14.775232
v -0.734409 10.701935 -17.199915
v 0.000000 8.290211 -20.834942
v 0.000000 6.128613 -23.882664
v 0.000000 3.916165 -25.350086
v 0.000000 11.282102 -19.713671
v 0.000000 8.516577 -25.696236
v 0.000000 4.509386 -28.038467
v 0.000000 2.335865 -24.672813
v 0.000000 1.997229 -23.544027
v -0.000000 0.953102 -22.810316
v -0.000000 0.000000 -22.556339
v -0.000000 0.000000 -32.321411
v 0.000000 3.753213 -31.192627
v 0.000000 3.104162 -30.431149
v 0.000000 3.442797 -29.245922
v -0.681746 3.753213 -31.192627
v -1.397575 0.000000 -32.321411
v -1.397575 0.589724 -18.520733
v -2.280791 0.000000 -23.560083
v -1.397575 0.953102 -23.311235
v -1.397575 1.997229 -24.044945
v -1.397575 2.335865 -25.173733
v -1.995395 4.509386 -28.038467
v -1.397575 8.516577 -24.605995
v -1.397575 10.614755 -19.713671
v -1.897774 0.000000 -18.724869
v -2.500251 -0.000000 -14.099035
v -1.397575 1.146720 -18.966423
v -1.687644 3.916165 -26.041168
v -1.337366 6.484153 -24.573746
v -1.397575 1.195104 -14.140435
v -1.397575 7.854182 -20.834942
v -1.397575 9.260212 -17.371439
v -1.397575 6.240709 -14.775232
v -1.047298 7.720139 -18.238735
v -2.015807 4.360942 -14.809202
v -1.397575 1.954490 -14.642176
v -2.212510 4.079804 -17.216919
v -1.687644 3.442797 -29.245922
v -1.397575 3.104162 -30.431149
v -1.129744 2.749066 -16.991016
v -2.015807 2.710701 -17.319691
v -1.120985 2.870032 -18.665550
v -3.012643 2.204217 -30.666058
v -3.514307 0.000000 -29.558468
v -3.001676 0.384921 -16.842518
v -3.895859 0.000000 -26.816879
v -3.012643 0.953102 -26.739010
v -2.356034 1.997229 -25.255764
v -2.831400 2.950031 -25.513086
v -2.326923 4.509386 -28.218250
v -1.632773 7.248701 -24.605995
v -1.632773 9.346879 -19.713671
v -3.501875 -0.204802 -17.046654
v -4.115319 -0.000000 -14.764847
v -3.001676 0.941918 -17.288208
v -1.630221 3.916165 -26.041168
v -2.003810 6.484153 -24.573746
v -3.012643 1.195104 -14.806248
v -2.064019 8.378850 -20.834942
v -2.312110 7.998633 -17.371439
v -2.312110 6.240709 -15.854579
v -1.713742 7.720139 -18.238735
v -3.630875 4.360942 -15.888550
v -3.012643 1.954490 -15.307987
v -3.630875 4.079804 -16.743093
v -2.951603 3.202555 -28.250729
v -3.012643 1.559884 -29.523172
v -3.630875 3.567851 -16.058487
v -3.871010 2.500768 -16.210426
v -2.172390 1.825679 -17.712666
v 0.786465 1.706499 -13.184607
v 0.531990 1.624012 -18.428017
v 1.543069 -0.000000 -14.112018
v 1.608139 0.000004 -18.471479
v 1.608139 0.589728 -18.267344
v 0.377811 3.660341 -18.199936
v 0.950145 3.858711 -17.556261
v 1.608139 2.749070 -16.181059
v 0.690823 5.265671 -17.380966
v 0.429585 1.566759 -13.856034
v 1.164164 3.973212 -14.436596
v 0.690823 7.133205 -18.238735
v 0.484611 8.859629 -14.775232
v -0.066678 11.288296 -17.371439
v 0.690823 8.290211 -20.834942
v 0.294729 6.408387 -24.123842
v 1.708506 4.466079 -25.963284
v 0.690823 10.554539 -19.713671
v 1.107890 7.809476 -25.557503
v 1.708506 4.509386 -29.017153
v 1.708506 2.335865 -26.246410
v 0.990196 2.722941 -24.890867
v 0.990196 1.678814 -24.157156
v 1.196787 0.000000 -23.786089
v 0.946479 0.000000 -31.886173
v 0.946479 3.753213 -30.757387
v 1.708506 3.104162 -28.752695
v 1.708506 3.442797 -28.546156
v 1.694486 1.706499 -14.055916
v 2.192495 1.624012 -18.428017
v 2.451090 -0.000000 -14.983328
v 3.268643 0.000004 -16.810841
v 3.268643 0.589728 -16.606707
v 0.850678 3.347324 -18.199936
v 1.423011 3.545694 -17.556261
v 2.084478 2.749070 -16.181059
v 1.167163 5.265671 -16.743093
v 1.337606 2.491374 -14.114084
v 1.432363 3.973212 -14.436596
v 1.029179 7.133205 -18.238735
v 1.426874 6.908056 -15.499542
v 1.452157 8.618907 -17.371439
v 1.029179 8.290211 -20.834942
v 0.633085 6.694668 -24.123842
v 2.046862 4.466079 -25.963284
v 1.263445 9.472303 -19.713671
v 0.559597 6.500824 -25.557503
v 2.380510 4.509386 -28.038467
v 3.369010 2.335865 -26.246410
v 2.152529 2.722941 -24.890867
v 2.152529 1.678814 -24.157156
v 2.799175 0.000000 -25.666748
v 2.665099 0.000000 -30.005512
v 1.522580 3.753213 -30.757387
v 2.278785 2.599342 -29.687546
v 2.380510 3.442797 -27.567471
vn -0.2814 0.5517 0.7851
vn -0.0000 -1.0000 -0.0000
vn -0.0000 0.3271 -0.9450
vn -0.3141 0.1216 0.9416
vn -0.0000 0.7495 -0.6620
vn 0.2170 -0.0042 -0.9762
vn 0.0832 -0.4870 -0.8694
vn -0.0000 0.9615 -0.2747
vn -0.0000 0.7611 0.6487
vn -0.0000 0.2880 -0.9576
vn -0.5582 0.2457 0.7925
vn -0.2496 0.5783 -0.7767
vn 0.0186 -0.3294 -0.9440
vn -0.3529 0.8541 -0.3820
vn -0.4249 0.8809 -0.2084
vn -0.0900 -0.8838 0.4591
vn -0.1024 0.9528 0.2858
vn -0.7122 0.6825 0.1642
vn -0.0598 -0.9697 -0.2371
vn -0.9071 0.2969 0.2982
vn -0.1730 0.0403 0.9841
vn -0.3319 0.3894 0.8592
vn -0.5918 0.7929 0.1450
vn -0.1560 0.8698 0.4682
vn -0.0883 0.1580 -0.9835
vn -0.3728 0.1752 0.9112
vn -0.4139 -0.4541 0.7890
vn -0.4940 0.7942 0.3537
vn 0.0769 -0.9961 0.0431
vn -0.8712 0.4244 -0.2467
vn -0.0000 -0.4961 0.8682
vn -0.6181 0.3054 0.7243
vn -0.3400 -0.8638 0.3717
vn -0.3253 0.5213 0.7890
vn -0.7390 0.2845 -0.6107
vn -0.3647 -0.9265 -0.0923
vn -0.2153 -0.2364 -0.9475
vn -0.7169 0.6050 0.3464
vn -0.4753 0.0145 0.8797
vn -0.6678 0.4856 0.5641
vn -0.8700 0.1003 0.4827
vn -0.3798 -0.5795 -0.7211
vn -0.2688 0.6010 -0.7527
vn -0.4582 0.4589 -0.7613
vn -0.9802 0.1818 -0.0780
vn -0.0015 0.4810 0.8767
vn -0.6705 0.5458 -0.5025
vn -0.6388 0.4038 -0.6548
vn -0.5824 0.6588 -0.4762
vn -0.5933 -0.5029 -0.6285
vn -0.2895 0.6488 0.7038
vn -0.3558 0.3582 0.8632
vn -0.6183 0.1291 -0.7752
vn -0.9052 0.4115 0.1061
vn -0.9972 -0.0168 -0.0733
vn -0.8080 0.5326 -0.2520
vn -0.9490 0.3122 -0.0444
vn -0.8826 0.4467 -0.1469
vn -0.7798 -0.0076 0.6260
vn -0.7521 0.0355 -0.6580
vn -0.9126 -0.2890 0.2891
vn -0.7072 0.6586 -0.2571
vn -0.9921 -0.0504 0.1153
vn -0.7331 0.6394 0.2319
vn -0.9823 -0.0247 0.1854
vn -0.9490 0.3087 0.0645
vn -0.9463 0.3066 -0.1028
vn -0.4097 0.6153 0.6735
vn 0.2913 0.8602 -0.4186
vn -0.0000 -0.9134 -0.4071
vn -0.0769 0.3254 -0.9425
vn 0.3469 -0.8003 0.4890
vn 0.4878 -0.0207 0.8727
vn 0.4989 -0.4294 0.7528
vn 0.3455 -0.0940 -0.9337
vn 0.1034 0.9946 0.0003
vn 0.1473 0.3235 -0.9347
vn 0.6060 0.7290 -0.3183
vn -0.3239 0.9350 -0.1442
vn -0.0792 0.6159 -0.7839
vn -0.3379 0.7338 0.5894
vn 0.5266 0.0898 0.8454
vn 0.1892 -0.2979 -0.9357
vn -0.3856 0.9136 -0.1293
vn 0.0971 0.2498 0.9634
vn 0.5688 0.4729 0.6730
vn 0.0794 -0.3917 -0.9167
vn 0.7141 0.2143 0.6665
vn 0.7431 0.1106 -0.6600
vn 0.7142 0.5283 -0.4591
vn 0.4030 0.2636 -0.8764
vn -0.0282 0.0719 0.9970
vn -0.3795 0.7930 0.4767
vn 0.8674 0.4835 0.1177
vn 0.6869 0.2377 -0.6868
vn 0.9995 0.0102 -0.0295
vn 0.4421 0.6678 -0.5989
vn 0.9556 0.2291 0.1855
vn 0.2792 0.8467 0.4529
vn -0.0000 -0.1318 0.9913
vn 0.5542 -0.0877 -0.8277
vn -0.0000 0.9616 -0.2746
vn 0.0431 0.2173 0.9752
vn -0.0000 0.5749 0.8182
vn 0.5572 -0.4278 -0.7117
vn 0.5572 -0.1362 0.8191
vn 0.0187 0.1278 -0.9916
vn 0.0192 0.7583 0.6517
vn 0.6282 0.1341 -0.7664
vn 0.7062 0.1844 0.6835
vn 0.5350 0.8170 0.2149
vn 0.8641 0.4158 0.2835
vn 0.3519 0.8282 -0.4362
vn 0.7998 -0.2425 -0.5492
vn 0.3566 -0.8430 0.4027
vn 0.6899 -0.0848 0.7189
vn 0.2326 -0.5499 0.8022
vn 0.4164 -0.3647 -0.8328
vn 0.9555 0.1714 -0.2403
vn 0.9813 0.0133 -0.1920
vn 0.8550 0.0562 0.5155
vn 0.9240 0.3792 -0.0497
vn 0.8101 0.5852 0.0350
vn 0.9848 -0.1707 -0.0332
vn 0.9809 -0.1640 -0.1042
vn 0.9821 -0.1119 -0.1518
vn 0.9868 0.1599 -0.0238
vn 0.8044 0.4805 -0.3492
vn 0.9207 0.1658 0.3533
vn 0.8806 0.4649 0.0915
vn 0.8824 0.0609 0.4665
vt 0.000000 0.000000
s 0
f 23/1/1 22/1/1 34/1/1 33/1/1
f 4/1/2 3/1/2 40/1/2 39/1/2
f 5/1/3 4/1/3 39/1/3 31/1/3
f 10/1/4 11/1/4 49/1/4 50/1/4
f 20/1/5 28/1/5 52/1/5 36/1/5
f 9/1/6 8/1/6 54/1/6 51/1/6
f 2/1/7 5/1/7 31/1/7 41/1/7
f 28/1/8 27/1/8 53/1/8 52/1/8
f 27/1/9 26/1/9 29/1/9 53/1/9
f 26/1/10 25/1/10 30/1/10 29/1/10
f 1/1/11 44/1/11 40/1/11 3/1/11
f 25/1/2 24/1/2 32/1/2 30/1/2
f 19/1/12 20/1/12 36/1/12 37/1/12
f 12/1/13 9/1/13 51/1/13 48/1/13
f 18/1/14 19/1/14 37/1/14 38/1/14
f 7/1/15 6/1/15 56/1/15 55/1/15
f 16/1/16 15/1/16 45/1/16 43/1/16
f 22/1/17 21/1/17 35/1/17 34/1/17
f 14/1/18 18/1/18 38/1/18 46/1/18
f 15/1/19 12/1/19 48/1/19 45/1/19
f 13/1/20 14/1/20 46/1/20 47/1/20
f 11/1/21 13/1/21 47/1/21 49/1/21
f 21/1/22 17/1/22 42/1/22 35/1/22
f 1/1/23 10/1/23 50/1/23 44/1/23
f 8/1/24 7/1/24 55/1/24 54/1/24
f 2/1/25 41/1/25 56/1/25 6/1/25
f 24/1/26 23/1/26 33/1/26 32/1/26
f 17/1/27 16/1/27 43/1/27 42/1/27
f 53/1/28 29/1/28 57/1/28 81/1/28
f 39/1/29 40/1/29 68/1/29 67/1/29
f 37/1/30 36/1/30 64/1/30 65/1/30
f 42/1/31 43/1/31 71/1/31 70/1/31
f 30/1/2 32/1/2 60/1/2 58/1/2
f 49/1/32 47/1/32 75/1/32 77/1/32
f 43/1/33 45/1/33 73/1/33 71/1/33
f 44/1/34 50/1/34 78/1/34 72/1/34
f 41/1/35 69/1/35 84/1/35 56/1/35
f 45/1/36 48/1/36 76/1/36 73/1/36
f 48/1/37 51/1/37 79/1/37 76/1/37
f 32/1/38 33/1/38 61/1/38 60/1/38
f 50/1/39 49/1/39 77/1/39 78/1/39
f 47/1/40 46/1/40 74/1/40 75/1/40
f 33/1/41 34/1/41 62/1/41 61/1/41
f 51/1/42 54/1/42 82/1/42 79/1/42
f 54/1/43 55/1/43 83/1/43 82/1/43
f 36/1/44 52/1/44 80/1/44 64/1/44
f 38/1/45 37/1/45 65/1/45 66/1/45
f 35/1/46 42/1/46 70/1/46 63/1/46
f 52/1/47 53/1/47 81/1/47 80/1/47
f 55/1/48 56/1/48 84/1/48 83/1/48
f 31/1/49 39/1/49 67/1/49 59/1/49
f 41/1/50 31/1/50 59/1/50 69/1/50
f 34/1/51 35/1/51 63/1/51 62/1/51
f 44/1/52 72/1/52 68/1/52 40/1/52
f 29/1/53 30/1/53 58/1/53 57/1/53
f 46/1/54 38/1/54 66/1/54 74/1/54
f 74/1/55 66/1/55 73/1/55 76/1/55
f 71/1/56 73/1/56 66/1/56 65/1/56
f 75/1/57 74/1/57 76/1/57 79/1/57
f 79/1/58 82/1/58 77/1/58 75/1/58
f 78/1/59 77/1/59 82/1/59 83/1/59
f 83/1/60 84/1/60 69/1/60 59/1/60
f 72/1/61 78/1/61 83/1/61 59/1/61
f 67/1/62 68/1/62 72/1/62 59/1/62
f 65/1/63 64/1/63 70/1/63 71/1/63
f 64/1/64 80/1/64 63/1/64 70/1/64
f 63/1/65 80/1/65 61/1/65 62/1/65
f 61/1/66 80/1/66 58/1/66 60/1/66
f 57/1/67 58/1/67 80/1/67 81/1/67
f 14/1/68 13/1/68 97/1/68 98/1/68
f 27/1/69 28/1/69 112/1/69 111/1/69
f 12/1/70 15/1/70 99/1/70 96/1/70
f 28/1/71 20/1/71 104/1/71 112/1/71
f 15/1/72 16/1/72 100/1/72 99/1/72
f 3/1/73 87/1/73 85/1/73 1/1/73
f 3/1/2 4/1/2 88/1/2 87/1/2
f 16/1/74 17/1/74 101/1/74 100/1/74
f 5/1/75 2/1/75 86/1/75 89/1/75
f 18/1/76 14/1/76 98/1/76 102/1/76
f 4/1/77 5/1/77 89/1/77 88/1/77
f 19/1/78 18/1/78 102/1/78 103/1/78
f 6/1/79 7/1/79 91/1/79 90/1/79
f 20/1/80 19/1/80 103/1/80 104/1/80
f 7/1/81 8/1/81 92/1/81 91/1/81
f 17/1/82 21/1/82 105/1/82 101/1/82
f 8/1/83 9/1/83 93/1/83 92/1/83
f 21/1/84 22/1/84 106/1/84 105/1/84
f 11/1/85 10/1/85 94/1/85 95/1/85
f 22/1/86 23/1/86 107/1/86 106/1/86
f 9/1/87 12/1/87 96/1/87 93/1/87
f 23/1/88 24/1/88 108/1/88 107/1/88
f 6/1/89 90/1/89 86/1/89 2/1/89
f 24/1/2 25/1/2 109/1/2 108/1/2
f 10/1/90 1/1/90 85/1/90 94/1/90
f 25/1/91 26/1/91 110/1/91 109/1/91
f 13/1/92 11/1/92 95/1/92 97/1/92
f 26/1/93 27/1/93 111/1/93 110/1/93
f 102/1/94 98/1/94 126/1/94 130/1/94
f 88/1/95 89/1/95 117/1/95 116/1/95
f 103/1/96 102/1/96 130/1/96 131/1/96
f 90/1/97 91/1/97 119/1/97 118/1/97
f 104/1/98 103/1/98 131/1/98 132/1/98
f 91/1/99 92/1/99 120/1/99 119/1/99
f 101/1/100 105/1/100 133/1/100 129/1/100
f 92/1/101 93/1/101 121/1/101 120/1/101
f 105/1/102 106/1/102 134/1/102 133/1/102
f 95/1/103 94/1/103 122/1/103 123/1/103
f 106/1/104 107/1/104 135/1/104 134/1/104
f 93/1/105 96/1/105 124/1/105 121/1/105
f 107/1/106 108/1/106 136/1/106 135/1/106
f 90/1/107 118/1/107 114/1/107 86/1/107
f 108/1/2 109/1/2 137/1/2 136/1/2
f 94/1/108 85/1/108 113/1/108 122/1/108
f 109/1/109 110/1/109 138/1/109 137/1/109
f 97/1/110 95/1/110 123/1/110 125/1/110
f 110/1/111 111/1/111 139/1/111 138/1/111
f 98/1/112 97/1/112 125/1/112 126/1/112
f 111/1/113 112/1/113 140/1/113 139/1/113
f 96/1/70 99/1/70 127/1/70 124/1/70
f 112/1/114 104/1/114 132/1/114 140/1/114
f 99/1/115 100/1/115 128/1/115 127/1/115
f 87/1/2 88/1/2 116/1/2 115/1/2
f 87/1/116 115/1/116 113/1/116 85/1/116
f 100/1/117 101/1/117 129/1/117 128/1/117
f 89/1/118 86/1/118 114/1/118 117/1/118
f 138/1/119 139/1/119 140/1/119 137/1/119
f 137/1/120 140/1/120 133/1/120 136/1/120
f 134/1/121 135/1/121 136/1/121 133/1/121
f 133/1/122 140/1/122 132/1/122 129/1/122
f 129/1/123 132/1/123 131/1/123 128/1/123
f 128/1/124 131/1/124 130/1/124 127/1/124
f 127/1/125 130/1/125 126/1/125 124/1/125
f 124/1/126 126/1/126 125/1/126 121/1/126
f 121/1/127 125/1/127 123/1/127 120/1/127
f 118/1/128 119/1/128 120/1/128 114/1/128
f 123/1/129 122/1/129 113/1/129 120/1/129
f 114/1/130 120/1/130 113/1/130 117/1/130
f 115/1/131 116/1/131 117/1/131 113/1/131
